<?xml version="1.0" encoding="UTF-8" standalone="no"?>
<!DOCTYPE svg PUBLIC "-//W3C//DTD SVG 1.1//EN" "http://www.w3.org/Graphics/SVG/1.1/DTD/svg11.dtd">
<svg width="100%" height="100%" viewBox="0 0 513 513" version="1.1" xmlns="http://www.w3.org/2000/svg" xmlns:xlink="http://www.w3.org/1999/xlink" xml:space="preserve" xmlns:serif="http://www.serif.com/" style="fill-rule:evenodd;clip-rule:evenodd;stroke-linejoin:round;stroke-miterlimit:1.41421;">
    <path d="M383,256C383,322.27 322.27,382 256,382C189.73,382 130,322.27 130,256C130,189.73 189.73,130 256,130C322.27,130 383,189.73 383,256Z" style="fill:rgb(237,76,116);fill-rule:nonzero;"/>
    <path d="M80,30C107.57,30 130,52.43 130,80C130,107.57 107.57,130 80,130C52.405,130 30,107.547 30,80C30,52.43 52.43,30 80,30Z" style="fill:rgb(120,212,255);fill-rule:nonzero;"/>
    <path d="M34.196,144.387C39.038,147.018 45.114,145.239 47.757,140.375C49.106,137.892 50.51,135.43 51.95,132.998C60.558,137.55 70.214,140 80,140C113.084,140 140,113.084 140,80C140,46.916 113.084,20 80,20C46.916,20 20,46.916 20,80C20,95.285 25.749,109.7 35.99,120.729C33.983,124.045 32.036,127.416 30.183,130.826C27.547,135.679 29.343,141.75 34.196,144.387ZM80,40C102.056,40 120,57.944 120,80C120,102.056 102.056,120 80,120C70.86,120 62.239,116.976 55.074,111.259C45.495,103.6 40,92.207 40,80C40,57.944 57.944,40 80,40Z" style="fill:rgb(27,75,104);fill-rule:nonzero;"/>
    <path d="M23.761,169.082C18.485,167.439 12.882,170.386 11.241,175.659C8.786,183.549 6.713,191.616 5.08,199.635C3.822,205.813 8.538,211.632 14.889,211.632C19.544,211.632 23.713,208.363 24.678,203.625C26.178,196.262 28.082,188.852 30.338,181.601C31.979,176.328 29.035,170.723 23.761,169.082Z" style="fill:rgb(27,75,104);fill-rule:nonzero;"/>
    <path d="M21.189,279.529C20.4,271.768 20,263.852 20,256C20,250.477 15.523,246 10,246C4.477,246 0,250.477 0,256C0,264.524 0.435,273.121 1.292,281.551C1.815,286.702 6.16,290.541 11.229,290.541C17.156,290.541 21.789,285.429 21.189,279.529Z" style="fill:rgb(27,75,104);fill-rule:nonzero;"/>
    <path d="M32.759,364.629C37.845,362.476 40.222,356.607 38.069,351.522C35.183,344.706 32.582,337.598 30.338,330.397C28.695,325.124 23.088,322.18 17.816,323.824C12.543,325.467 9.601,331.073 11.243,336.346C13.681,344.172 16.511,351.902 19.652,359.32C21.806,364.406 27.676,366.783 32.759,364.629Z" style="fill:rgb(27,75,104);fill-rule:nonzero;"/>
    <path d="M45.393,387.904C40.816,390.995 39.613,397.212 42.704,401.788C47.191,408.43 52.031,414.904 57.09,421.029C60.603,425.281 66.904,425.893 71.168,422.371C75.426,418.854 76.027,412.551 72.51,408.293C67.858,402.661 63.406,396.706 59.277,390.593C56.186,386.016 49.968,384.811 45.393,387.904Z" style="fill:rgb(27,75,104);fill-rule:nonzero;"/>
    <path d="M89.63,440.832C86.113,445.09 86.713,451.393 90.972,454.91C97.097,459.969 103.571,464.809 110.213,469.296C114.769,472.373 120.992,471.204 124.097,466.607C127.188,462.03 125.985,455.814 121.408,452.723C115.295,448.594 109.341,444.142 103.708,439.49C99.451,435.974 93.147,436.574 89.63,440.832Z" style="fill:rgb(27,75,104);fill-rule:nonzero;"/>
    <path d="M175.655,500.757C180.95,502.406 186.54,499.437 188.177,494.185C189.82,488.912 186.877,483.306 181.604,481.663C174.402,479.419 167.295,476.818 160.479,473.932C155.395,471.78 149.525,474.156 147.372,479.242C145.219,484.327 147.596,490.196 152.682,492.349C160.1,495.491 167.829,498.32 175.655,500.757Z" style="fill:rgb(27,75,104);fill-rule:nonzero;"/>
    <path d="M256,512C261.523,512 266,507.522 266,502C266,496.478 261.523,492 256,492C248.148,492 240.232,491.6 232.471,490.811C226.978,490.249 222.07,494.254 221.511,499.748C220.952,505.243 224.954,510.15 230.449,510.708C238.879,511.566 247.476,512 256,512Z" style="fill:rgb(27,75,104);fill-rule:nonzero;"/>
    <path d="M313.365,506.919C321.38,505.288 329.447,503.215 337.342,500.759C342.615,499.117 345.56,493.513 343.919,488.239C342.278,482.966 336.673,480.02 331.399,481.662C324.144,483.919 316.734,485.824 309.376,487.322C303.964,488.424 300.47,493.704 301.572,499.116C302.668,504.504 307.928,508.024 313.365,506.919Z" style="fill:rgb(27,75,104);fill-rule:nonzero;"/>
    <path d="M382.169,481.82C389.133,478.041 396.068,473.829 402.782,469.301C407.361,466.213 408.569,459.997 405.481,455.419C402.392,450.84 396.176,449.631 391.599,452.72C385.415,456.891 379.033,460.767 372.632,464.241C367.778,466.875 365.978,472.946 368.611,477.8C371.236,482.638 377.301,484.462 382.169,481.82Z" style="fill:rgb(27,75,104);fill-rule:nonzero;"/>
    <path d="M425.646,438.788C429.535,442.67 435.866,442.703 439.788,438.775C445.409,433.144 450.832,427.174 455.909,421.031C459.427,416.774 458.828,410.471 454.571,406.952C450.316,403.434 444.012,404.033 440.492,408.29C435.812,413.953 430.813,419.456 425.633,424.645C421.73,428.555 421.737,434.887 425.646,438.788Z" style="fill:rgb(27,75,104);fill-rule:nonzero;"/>
    <path d="M469.25,385.184C474.102,387.824 480.174,386.031 482.813,381.18C486.639,374.15 490.183,366.795 493.348,359.319C495.501,354.233 493.124,348.365 488.038,346.212C482.952,344.059 477.084,346.436 474.931,351.522C472.019,358.399 468.761,365.162 465.245,371.621C462.606,376.472 464.399,382.544 469.25,385.184Z" style="fill:rgb(27,75,104);fill-rule:nonzero;"/>
    <path d="M503.011,270.592C497.517,270.029 492.61,274.035 492.052,279.53C491.28,287.12 490.054,301.093 488.564,308.364C487.456,313.774 490.943,319.059 496.354,320.167C501.766,321.275 507.049,317.787 508.157,312.377C509.868,304.027 511.103,289.898 511.949,281.551C512.507,276.056 508.505,271.15 503.011,270.592Z" style="fill:rgb(27,75,104);fill-rule:nonzero;"/>
    <path d="M508.156,199.623C507.048,194.212 501.758,190.723 496.353,191.833C490.942,192.941 487.455,198.226 488.563,203.636C490.054,210.914 491.277,224.868 492.051,232.47C492.574,237.621 496.919,241.46 501.988,241.46C502.326,241.46 502.668,241.443 503.011,241.408C508.506,240.85 512.507,235.943 511.949,230.449C511.1,222.087 509.867,207.973 508.156,199.623Z" style="fill:rgb(27,75,104);fill-rule:nonzero;"/>
    <path d="M474.932,160.479C477.089,165.575 482.965,167.938 488.039,165.789C493.125,163.636 495.502,157.768 493.349,152.682C490.184,145.206 486.64,137.851 482.814,130.821C480.174,125.97 474.101,124.177 469.251,126.817C464.4,129.457 462.607,135.529 465.247,140.38C468.761,146.84 472.02,153.602 474.932,160.479Z" style="fill:rgb(27,75,104);fill-rule:nonzero;"/>
    <path d="M440.492,103.71C444,107.955 450.3,108.577 454.571,105.048C458.828,101.529 459.427,95.226 455.909,90.969C450.832,84.826 445.409,78.856 439.788,73.225C435.887,69.316 429.556,69.31 425.646,73.212C421.737,77.113 421.731,83.445 425.633,87.354C430.812,92.545 435.812,98.048 440.492,103.71Z" style="fill:rgb(27,75,104);fill-rule:nonzero;"/>
    <path d="M402.782,42.7C396.068,38.172 389.133,33.96 382.169,30.181C377.317,27.547 371.245,29.348 368.61,34.202C365.976,39.056 367.776,45.126 372.631,47.761C379.032,51.235 385.414,55.111 391.598,59.282C396.186,62.377 402.399,61.152 405.48,56.583C408.569,52.004 407.36,45.788 402.782,42.7Z" style="fill:rgb(27,75,104);fill-rule:nonzero;"/>
    <path d="M337.341,11.242C329.451,8.787 321.384,6.714 313.365,5.081C307.954,3.978 302.673,7.473 301.571,12.885C300.469,18.297 303.963,23.577 309.375,24.679C316.738,26.179 324.148,28.083 331.399,30.339C336.651,31.974 342.271,29.055 343.919,23.762C345.56,18.488 342.615,12.883 337.341,11.242Z" style="fill:rgb(27,75,104);fill-rule:nonzero;"/>
    <path d="M231.448,21.242C233.102,21.242 241.713,20 256,20C261.523,20 266,15.523 266,10C266,4.477 261.523,0 256,0C247.476,0 238.879,0.435 230.449,1.292C224.954,1.851 220.953,6.757 221.511,12.252C222.035,17.403 226.379,21.242 231.448,21.242Z" style="fill:rgb(27,75,104);fill-rule:nonzero;"/>
    <path d="M160.479,38.069C167.295,35.183 174.403,32.582 181.604,30.338C186.877,28.695 189.819,23.089 188.177,17.816C186.534,12.543 180.927,9.599 175.655,11.243C167.829,13.681 160.099,16.511 152.681,19.652C147.595,21.805 145.218,27.674 147.371,32.759C149.528,37.854 155.404,40.219 160.479,38.069Z" style="fill:rgb(27,75,104);fill-rule:nonzero;"/>
    <path d="M256,120C184.197,120 120,184.28 120,256C120,327.803 184.28,392 256,392C327.878,392 393,327.662 393,256C393,184.388 327.937,120 256,120ZM256,372C195.29,372 140,316.71 140,256C140,195.29 195.29,140 256,140C317.234,140 373,195.29 373,256C373,316.71 317.234,372 256,372Z" style="fill:rgb(27,75,104);fill-rule:nonzero;"/>
    <path d="M296,246L266,246L266,216C266,210.477 261.523,206 256,206C250.477,206 246,210.477 246,216L246,246L216,246C210.477,246 206,250.477 206,256C206,261.523 210.477,266 216,266L246,266L246,296C246,301.523 250.477,306 256,306C261.523,306 266,301.523 266,296L266,266L296,266C301.523,266 306,261.523 306,256C306,250.477 301.523,246 296,246Z" style="fill-rule:nonzero;"/>
    <path d="M60,90L100,90C105.523,90 110,85.523 110,80C110,74.477 105.523,70 100,70L60,70C54.477,70 50,74.477 50,80C50,85.523 54.477,90 60,90Z" style="fill-rule:nonzero;"/>
</svg>
